<?xml version="1.0" encoding="UTF-8"?>
<svg xmlns="http://www.w3.org/2000/svg" width="48" height="48" viewBox="0 0 48 48">
 <defs>
  <linearGradient id="back" x1="0" y1="0" x2="0" y2="1">
   <stop offset="0" stop-color="#2fb5a8"/><stop offset="1" stop-color="#128a86"/>
  </linearGradient>
  <linearGradient id="wave" x1="0" y1="0" x2="0" y2="1">
   <stop offset="0" stop-color="#7fe0d2"/><stop offset="1" stop-color="#1fa59c"/>
  </linearGradient>
 </defs>
 <path d="M6 10a3 3 0 0 1 3-3h10l4 4h16a3 3 0 0 1 3 3v24a3 3 0 0 1-3 3H9a3 3 0 0 1-3-3z" fill="url(#back)"/>
 <path d="M6 23q4.500-5 9 0t9 0 9 0 9 0v13a3 3 0 0 1-3 3H9a3 3 0 0 1-3-3z" fill="url(#wave)"/>
 <path d="M6 23q4.500-5 9 0t9 0 9 0 9 0" fill="none" stroke="#fff" stroke-width="1.600" opacity=".85"/>
 <path d="M17 30V16H21L27.400 24.200V16H31V30H27L20.600 21.800V30z" fill="#06403c" opacity=".35" transform="translate(0 1)"/>
 <path d="M17 30V16H21L27.400 24.200V16H31V30H27L20.600 21.800V30z" fill="#fff"/>
</svg>
